<svg xmlns="http://www.w3.org/2000/svg" xmlns:xlink="http://www.w3.org/1999/xlink" width="40" height="40" viewBox="0 0 40 40">
  <defs>
    <clipPath id="clip-path">
      <rect id="사각형_1453" data-name="사각형 1453" width="40" height="40" transform="translate(0 0.005)" fill="none"/>
    </clipPath>
  </defs>
  <g id="그룹_10362" data-name="그룹 10362" transform="translate(0 -0.005)" clip-path="url(#clip-path)">
    <path id="합치기_4" data-name="합치기 4" d="M-3010.475-1364.391a3.529,3.529,0,0,1-3.525-3.525v-14.224a3.529,3.529,0,0,1,3.525-3.524h1.3V-1387a1,1,0,0,1,1-1,1,1,0,0,1,1,1v1.331h8.916V-1387a1,1,0,0,1,1-1,1,1,0,0,1,1,1v1.331h1.3a3.529,3.529,0,0,1,3.525,3.524v14.224a3.529,3.529,0,0,1-3.525,3.525Zm-1.526-3.525a1.528,1.528,0,0,0,1.526,1.526h15.524a1.528,1.528,0,0,0,1.525-1.526v-9.841H-3012Zm18.575-11.841v-2.382a1.527,1.527,0,0,0-1.525-1.525h-1.3v1.332a1,1,0,0,1-1,1,1,1,0,0,1-1-1v-1.332h-8.916v1.332a1,1,0,0,1-1,1,1,1,0,0,1-1-1v-1.332h-1.3a1.527,1.527,0,0,0-1.526,1.525v2.382Z" transform="translate(3022.7 1395.8)" fill="#333"/>
  </g>
</svg>
